<?xml version="1.0" encoding="UTF-8"?>
<svg xmlns="http://www.w3.org/2000/svg"
     xmlns:xlink="http://www.w3.org/1999/xlink"
     xmlns:gadfly="http://www.gadflyjl.org/ns"
     version="1.2"
     width="160mm" height="90mm" viewBox="0 0 160 90"
     stroke="none"
     fill="#000000"
     stroke-width="0.3"
     font-size="3.88"
>
<defs>
  <marker id="arrow" markerWidth="15" markerHeight="7" refX="5" refY="3.5" orient="auto" markerUnits="strokeWidth">
    <path d="M0,0 L15,3.5 L0,7 z" stroke="context-stroke" fill="context-stroke"/>
  </marker>
</defs>
<g stroke="#000000" stroke-opacity="0.000" fill="#FFFFFF" id="img-9d5b87d1-1">
  <g transform="translate(80,45)">
    <path d="M-80,-45 L80,-45 80,45 -80,45  z" class="primitive"/>
  </g>
</g>
<g class="plotroot yscalable" id="img-9d5b87d1-2">
  <g font-size="3.88" font-family="'PT Sans','Helvetica Neue','Helvetica',sans-serif" fill="#564A55" stroke="#000000" stroke-opacity="0.000" id="img-9d5b87d1-3">
    <g transform="translate(79.93,78.39)">
      <g class="primitive">
        <text text-anchor="middle" dy="0.6em">Region</text>
      </g>
    </g>
  </g>
  <g class="guide xlabels" font-size="2.82" font-family="'PT Sans Caption','Helvetica Neue','Helvetica',sans-serif" fill="#6C606B" id="img-9d5b87d1-4">
    <g transform="translate(31.69,71.72)">
      <g class="primitive">
        <text text-anchor="middle" dy="0.6em">Africa</text>
      </g>
    </g>
    <g transform="translate(55.81,71.72)">
      <g class="primitive">
        <text text-anchor="middle" dy="0.6em">Americas</text>
      </g>
    </g>
    <g transform="translate(79.93,71.72)">
      <g class="primitive">
        <text text-anchor="middle" dy="0.6em">Asia</text>
      </g>
    </g>
    <g transform="translate(104.05,71.72)">
      <g class="primitive">
        <text text-anchor="middle" dy="0.6em">Europe</text>
      </g>
    </g>
    <g transform="translate(128.17,71.72)">
      <g class="primitive">
        <text text-anchor="middle" dy="0.6em">Oceania</text>
      </g>
    </g>
  </g>
  <g class="guide colorkey" id="img-9d5b87d1-5">
    <g fill="#4C404B" font-size="2.82" font-family="'PT Sans','Helvetica Neue','Helvetica',sans-serif" id="img-9d5b87d1-6">
      <g transform="translate(144.05,35.22)" id="img-9d5b87d1-7" class="color_Africa">
        <g class="primitive">
          <text dy="0.35em">Africa</text>
        </g>
      </g>
      <g transform="translate(144.05,38.85)" id="img-9d5b87d1-8" class="color_Americas">
        <g class="primitive">
          <text dy="0.35em">Americas</text>
        </g>
      </g>
      <g transform="translate(144.05,42.48)" id="img-9d5b87d1-9" class="color_Asia">
        <g class="primitive">
          <text dy="0.35em">Asia</text>
        </g>
      </g>
      <g transform="translate(144.05,46.1)" id="img-9d5b87d1-10" class="color_Europe">
        <g class="primitive">
          <text dy="0.35em">Europe</text>
        </g>
      </g>
      <g transform="translate(144.05,49.73)" id="img-9d5b87d1-11" class="color_Oceania">
        <g class="primitive">
          <text dy="0.35em">Oceania</text>
        </g>
      </g>
    </g>
    <g fill-opacity="1" id="img-9d5b87d1-12">
      <g transform="translate(142.14,35.22)" id="img-9d5b87d1-13" class="color_Africa" stroke="#FFFFFF" fill="#00BFFF">
        <path d="M-0.91,-0.91 L0.91,-0.91 0.91,0.91 -0.91,0.91  z" class="primitive"/>
      </g>
      <g transform="translate(142.14,38.85)" id="img-9d5b87d1-14" class="color_Americas" stroke="#FFFFFF" fill="#D4CA3A">
        <path d="M-0.91,-0.91 L0.91,-0.91 0.91,0.91 -0.91,0.91  z" class="primitive"/>
      </g>
      <g transform="translate(142.14,42.48)" id="img-9d5b87d1-15" class="color_Asia" stroke="#FFFFFF" fill="#FF6DAE">
        <path d="M-0.91,-0.91 L0.91,-0.91 0.91,0.91 -0.91,0.91  z" class="primitive"/>
      </g>
      <g transform="translate(142.14,46.1)" id="img-9d5b87d1-16" class="color_Europe" stroke="#FFFFFF" fill="#00B78D">
        <path d="M-0.91,-0.91 L0.91,-0.91 0.91,0.91 -0.91,0.91  z" class="primitive"/>
      </g>
      <g transform="translate(142.14,49.73)" id="img-9d5b87d1-17" class="color_Oceania" stroke="#FFFFFF" fill="#BEA9FF">
        <path d="M-0.91,-0.91 L0.91,-0.91 0.91,0.91 -0.91,0.91  z" class="primitive"/>
      </g>
    </g>
    <g fill="#362A35" font-size="3.88" font-family="'PT Sans','Helvetica Neue','Helvetica',sans-serif" stroke="#000000" stroke-opacity="0.000" id="img-9d5b87d1-18">
      <g transform="translate(141.23,31.4)" id="img-9d5b87d1-19">
        <g class="primitive">
          <text dy="-0em">Region</text>
        </g>
      </g>
    </g>
  </g>
  <g clip-path="url(#img-9d5b87d1-20)">
    <g id="img-9d5b87d1-21">
      <g pointer-events="visible" stroke-width="0.3" fill="#000000" fill-opacity="0.000" stroke="#000000" stroke-opacity="0.000" class="guide background" id="img-9d5b87d1-22">
        <g transform="translate(79.93,40.66)" id="img-9d5b87d1-23">
          <path d="M-60.3,-30.05 L60.3,-30.05 60.3,30.05 -60.3,30.05  z" class="primitive"/>
        </g>
      </g>
      <g class="guide ygridlines xfixed" stroke-dasharray="0.5,0.5" stroke-width="0.2" stroke="#D0D0E0" id="img-9d5b87d1-24">
        <g transform="translate(79.93,68.72)" id="img-9d5b87d1-25">
          <path fill="none" d="M-60.3,0 L60.3,0 " class="primitive"/>
        </g>
        <g transform="translate(79.93,40.66)" id="img-9d5b87d1-26">
          <path fill="none" d="M-60.3,0 L60.3,0 " class="primitive"/>
        </g>
        <g transform="translate(79.93,12.61)" id="img-9d5b87d1-27">
          <path fill="none" d="M-60.3,0 L60.3,0 " class="primitive"/>
        </g>
      </g>
      <g class="guide xgridlines yfixed" stroke-dasharray="0.5,0.5" stroke-width="0.2" stroke="#D0D0E0" id="img-9d5b87d1-28">
        <g transform="translate(43.75,40.66)" id="img-9d5b87d1-29">
          <path fill="none" d="M0,-30.05 L0,30.05 " class="primitive"/>
        </g>
        <g transform="translate(67.87,40.66)" id="img-9d5b87d1-30">
          <path fill="none" d="M0,-30.05 L0,30.05 " class="primitive"/>
        </g>
        <g transform="translate(91.99,40.66)" id="img-9d5b87d1-31">
          <path fill="none" d="M0,-30.05 L0,30.05 " class="primitive"/>
        </g>
        <g transform="translate(116.11,40.66)" id="img-9d5b87d1-32">
          <path fill="none" d="M0,-30.05 L0,30.05 " class="primitive"/>
        </g>
      </g>
      <g class="plotpanel" id="img-9d5b87d1-33">
        <metadata>
          <boundingbox value="19.63166666666666mm 10.611666666666665mm 120.60166666666666mm 60.10333333333334mm"/>
          <unitbox value="0.5 103.5648505733468 5.0 -107.1297011466936"/>
        </metadata>
        <g class="geometry" id="img-9d5b87d1-34">
          <g stroke="#000000" stroke-opacity="0.000" stroke-width="0.3" class="marker" id="img-9d5b87d1-35">
            <g transform="translate(55.81,68.71)" id="img-9d5b87d1-36" fill="#D4CA3A">
              <circle cx="0" cy="0" r="0.9" class="primitive"/>
            </g>
            <g transform="translate(57.71,68.71)" id="img-9d5b87d1-37" fill="#D4CA3A">
              <circle cx="0" cy="0" r="0.9" class="primitive"/>
            </g>
            <g transform="translate(128.17,68.71)" id="img-9d5b87d1-38" fill="#BEA9FF">
              <circle cx="0" cy="0" r="0.9" class="primitive"/>
            </g>
            <g transform="translate(130.07,68.71)" id="img-9d5b87d1-39" fill="#BEA9FF">
              <circle cx="0" cy="0" r="0.9" class="primitive"/>
            </g>
            <g transform="translate(53.91,68.71)" id="img-9d5b87d1-40" fill="#D4CA3A">
              <circle cx="0" cy="0" r="0.9" class="primitive"/>
            </g>
            <g transform="translate(126.27,68.7)" id="img-9d5b87d1-41" fill="#BEA9FF">
              <circle cx="0" cy="0" r="0.9" class="primitive"/>
            </g>
            <g transform="translate(124.37,68.7)" id="img-9d5b87d1-42" fill="#BEA9FF">
              <circle cx="0" cy="0" r="0.9" class="primitive"/>
            </g>
            <g transform="translate(59.61,68.7)" id="img-9d5b87d1-43" fill="#D4CA3A">
              <circle cx="0" cy="0" r="0.9" class="primitive"/>
            </g>
            <g transform="translate(104.05,68.7)" id="img-9d5b87d1-44" fill="#00B78D">
              <circle cx="0" cy="0" r="0.9" class="primitive"/>
            </g>
            <g transform="translate(52.01,68.69)" id="img-9d5b87d1-45" fill="#D4CA3A">
              <circle cx="0" cy="0" r="0.9" class="primitive"/>
            </g>
            <g transform="translate(105.95,68.69)" id="img-9d5b87d1-46" fill="#00B78D">
              <circle cx="0" cy="0" r="0.9" class="primitive"/>
            </g>
            <g transform="translate(107.85,68.69)" id="img-9d5b87d1-47" fill="#00B78D">
              <circle cx="0" cy="0" r="0.9" class="primitive"/>
            </g>
            <g transform="translate(61.51,68.69)" id="img-9d5b87d1-48" fill="#D4CA3A">
              <circle cx="0" cy="0" r="0.9" class="primitive"/>
            </g>
            <g transform="translate(55.81,68.69)" id="img-9d5b87d1-49" fill="#D4CA3A">
              <circle cx="0" cy="0" r="0.9" class="primitive"/>
            </g>
            <g transform="translate(131.97,68.68)" id="img-9d5b87d1-50" fill="#BEA9FF">
              <circle cx="0" cy="0" r="0.9" class="primitive"/>
            </g>
            <g transform="translate(50.11,68.68)" id="img-9d5b87d1-51" fill="#D4CA3A">
              <circle cx="0" cy="0" r="0.9" class="primitive"/>
            </g>
            <g transform="translate(133.87,68.68)" id="img-9d5b87d1-52" fill="#BEA9FF">
              <circle cx="0" cy="0" r="0.9" class="primitive"/>
            </g>
            <g transform="translate(63.41,68.68)" id="img-9d5b87d1-53" fill="#D4CA3A">
              <circle cx="0" cy="0" r="0.9" class="primitive"/>
            </g>
            <g transform="translate(48.21,68.68)" id="img-9d5b87d1-54" fill="#D4CA3A">
              <circle cx="0" cy="0" r="0.9" class="primitive"/>
            </g>
            <g transform="translate(46.31,68.67)" id="img-9d5b87d1-55" fill="#D4CA3A">
              <circle cx="0" cy="0" r="0.9" class="primitive"/>
            </g>
            <g transform="translate(109.75,68.67)" id="img-9d5b87d1-56" fill="#00B78D">
              <circle cx="0" cy="0" r="0.9" class="primitive"/>
            </g>
            <g transform="translate(65.31,68.66)" id="img-9d5b87d1-57" fill="#D4CA3A">
              <circle cx="0" cy="0" r="0.9" class="primitive"/>
            </g>
            <g transform="translate(31.69,68.66)" id="img-9d5b87d1-58" fill="#00BFFF">
              <circle cx="0" cy="0" r="0.9" class="primitive"/>
            </g>
            <g transform="translate(44.41,68.66)" id="img-9d5b87d1-59" fill="#D4CA3A">
              <circle cx="0" cy="0" r="0.9" class="primitive"/>
            </g>
            <g transform="translate(122.47,68.65)" id="img-9d5b87d1-60" fill="#BEA9FF">
              <circle cx="0" cy="0" r="0.9" class="primitive"/>
            </g>
            <g transform="translate(42.51,68.65)" id="img-9d5b87d1-61" fill="#D4CA3A">
              <circle cx="0" cy="0" r="0.9" class="primitive"/>
            </g>
            <g transform="translate(120.57,68.65)" id="img-9d5b87d1-62" fill="#BEA9FF">
              <circle cx="0" cy="0" r="0.9" class="primitive"/>
            </g>
            <g transform="translate(118.67,68.65)" id="img-9d5b87d1-63" fill="#BEA9FF">
              <circle cx="0" cy="0" r="0.9" class="primitive"/>
            </g>
            <g transform="translate(67.21,68.62)" id="img-9d5b87d1-64" fill="#D4CA3A">
              <circle cx="0" cy="0" r="0.9" class="primitive"/>
            </g>
            <g transform="translate(55.81,68.61)" id="img-9d5b87d1-65" fill="#D4CA3A">
              <circle cx="0" cy="0" r="0.9" class="primitive"/>
            </g>
            <g transform="translate(31.69,68.59)" id="img-9d5b87d1-66" fill="#00BFFF">
              <circle cx="0" cy="0" r="0.9" class="primitive"/>
            </g>
            <g transform="translate(135.77,68.56)" id="img-9d5b87d1-67" fill="#BEA9FF">
              <circle cx="0" cy="0" r="0.9" class="primitive"/>
            </g>
            <g transform="translate(116.78,68.56)" id="img-9d5b87d1-68" fill="#BEA9FF">
              <circle cx="0" cy="0" r="0.9" class="primitive"/>
            </g>
            <g transform="translate(40.61,68.55)" id="img-9d5b87d1-69" fill="#D4CA3A">
              <circle cx="0" cy="0" r="0.9" class="primitive"/>
            </g>
            <g transform="translate(137.67,68.55)" id="img-9d5b87d1-70" fill="#BEA9FF">
              <circle cx="0" cy="0" r="0.9" class="primitive"/>
            </g>
            <g transform="translate(111.65,68.52)" id="img-9d5b87d1-71" fill="#00B78D">
              <circle cx="0" cy="0" r="0.9" class="primitive"/>
            </g>
            <g transform="translate(69.11,68.5)" id="img-9d5b87d1-72" fill="#D4CA3A">
              <circle cx="0" cy="0" r="0.9" class="primitive"/>
            </g>
            <g transform="translate(38.72,68.5)" id="img-9d5b87d1-73" fill="#D4CA3A">
              <circle cx="0" cy="0" r="0.9" class="primitive"/>
            </g>
            <g transform="translate(79.93,68.47)" id="img-9d5b87d1-74" fill="#FF6DAE">
              <circle cx="0" cy="0" r="0.9" class="primitive"/>
            </g>
            <g transform="translate(102.17,68.47)" id="img-9d5b87d1-75" fill="#00B78D">
              <circle cx="0" cy="0" r="0.9" class="primitive"/>
            </g>
            <g transform="translate(81.83,68.42)" id="img-9d5b87d1-76" fill="#FF6DAE">
              <circle cx="0" cy="0" r="0.9" class="primitive"/>
            </g>
            <g transform="translate(31.69,68.41)" id="img-9d5b87d1-77" fill="#00BFFF">
              <circle cx="0" cy="0" r="0.9" class="primitive"/>
            </g>
            <g transform="translate(71,68.39)" id="img-9d5b87d1-78" fill="#D4CA3A">
              <circle cx="0" cy="0" r="0.9" class="primitive"/>
            </g>
            <g transform="translate(100.27,68.37)" id="img-9d5b87d1-79" fill="#00B78D">
              <circle cx="0" cy="0" r="0.9" class="primitive"/>
            </g>
            <g transform="translate(98.37,68.36)" id="img-9d5b87d1-80" fill="#00B78D">
              <circle cx="0" cy="0" r="0.9" class="primitive"/>
            </g>
            <g transform="translate(78.04,68.36)" id="img-9d5b87d1-81" fill="#FF6DAE">
              <circle cx="0" cy="0" r="0.9" class="primitive"/>
            </g>
            <g transform="translate(139.56,68.34)" id="img-9d5b87d1-82" fill="#BEA9FF">
              <circle cx="0" cy="0" r="0.9" class="primitive"/>
            </g>
            <g transform="translate(76.14,68.29)" id="img-9d5b87d1-83" fill="#FF6DAE">
              <circle cx="0" cy="0" r="0.9" class="primitive"/>
            </g>
            <g transform="translate(72.9,68.28)" id="img-9d5b87d1-84" fill="#D4CA3A">
              <circle cx="0" cy="0" r="0.9" class="primitive"/>
            </g>
            <g transform="translate(31.69,68.24)" id="img-9d5b87d1-85" fill="#00BFFF">
              <circle cx="0" cy="0" r="0.9" class="primitive"/>
            </g>
            <g transform="translate(114.91,68.22)" id="img-9d5b87d1-86" fill="#BEA9FF">
              <circle cx="0" cy="0" r="0.9" class="primitive"/>
            </g>
            <g transform="translate(31.69,68.17)" id="img-9d5b87d1-87" fill="#00BFFF">
              <circle cx="0" cy="0" r="0.9" class="primitive"/>
            </g>
            <g transform="translate(33.59,68.07)" id="img-9d5b87d1-88" fill="#00BFFF">
              <circle cx="0" cy="0" r="0.9" class="primitive"/>
            </g>
            <g transform="translate(83.7,68.05)" id="img-9d5b87d1-89" fill="#FF6DAE">
              <circle cx="0" cy="0" r="0.9" class="primitive"/>
            </g>
            <g transform="translate(29.8,68.04)" id="img-9d5b87d1-90" fill="#00BFFF">
              <circle cx="0" cy="0" r="0.9" class="primitive"/>
            </g>
            <g transform="translate(85.6,67.99)" id="img-9d5b87d1-91" fill="#FF6DAE">
              <circle cx="0" cy="0" r="0.9" class="primitive"/>
            </g>
            <g transform="translate(113.46,67.97)" id="img-9d5b87d1-92" fill="#00B78D">
              <circle cx="0" cy="0" r="0.9" class="primitive"/>
            </g>
            <g transform="translate(35.49,67.95)" id="img-9d5b87d1-93" fill="#00BFFF">
              <circle cx="0" cy="0" r="0.9" class="primitive"/>
            </g>
            <g transform="translate(36.9,67.93)" id="img-9d5b87d1-94" fill="#D4CA3A">
              <circle cx="0" cy="0" r="0.9" class="primitive"/>
            </g>
            <g transform="translate(74.3,67.79)" id="img-9d5b87d1-95" fill="#FF6DAE">
              <circle cx="0" cy="0" r="0.9" class="primitive"/>
            </g>
            <g transform="translate(96.61,67.65)" id="img-9d5b87d1-96" fill="#00B78D">
              <circle cx="0" cy="0" r="0.9" class="primitive"/>
            </g>
            <g transform="translate(27.94,67.64)" id="img-9d5b87d1-97" fill="#00BFFF">
              <circle cx="0" cy="0" r="0.9" class="primitive"/>
            </g>
            <g transform="translate(94.71,67.55)" id="img-9d5b87d1-98" fill="#00B78D">
              <circle cx="0" cy="0" r="0.9" class="primitive"/>
            </g>
            <g transform="translate(115.32,67.55)" id="img-9d5b87d1-99" fill="#00B78D">
              <circle cx="0" cy="0" r="0.9" class="primitive"/>
            </g>
            <g transform="translate(37.34,67.52)" id="img-9d5b87d1-100" fill="#00BFFF">
              <circle cx="0" cy="0" r="0.9" class="primitive"/>
            </g>
            <g transform="translate(26.04,67.5)" id="img-9d5b87d1-101" fill="#00BFFF">
              <circle cx="0" cy="0" r="0.9" class="primitive"/>
            </g>
            <g transform="translate(39.23,67.42)" id="img-9d5b87d1-102" fill="#00BFFF">
              <circle cx="0" cy="0" r="0.9" class="primitive"/>
            </g>
            <g transform="translate(24.15,67.4)" id="img-9d5b87d1-103" fill="#00BFFF">
              <circle cx="0" cy="0" r="0.9" class="primitive"/>
            </g>
            <g transform="translate(22.25,67.32)" id="img-9d5b87d1-104" fill="#00BFFF">
              <circle cx="0" cy="0" r="0.9" class="primitive"/>
            </g>
            <g transform="translate(104.05,67.17)" id="img-9d5b87d1-105" fill="#00B78D">
              <circle cx="0" cy="0" r="0.9" class="primitive"/>
            </g>
            <g transform="translate(79.93,67.13)" id="img-9d5b87d1-106" fill="#FF6DAE">
              <circle cx="0" cy="0" r="0.9" class="primitive"/>
            </g>
            <g transform="translate(92.87,67.1)" id="img-9d5b87d1-107" fill="#00B78D">
              <circle cx="0" cy="0" r="0.9" class="primitive"/>
            </g>
            <g transform="translate(74.37,67.07)" id="img-9d5b87d1-108" fill="#D4CA3A">
              <circle cx="0" cy="0" r="0.9" class="primitive"/>
            </g>
            <g transform="translate(76.27,67.06)" id="img-9d5b87d1-109" fill="#D4CA3A">
              <circle cx="0" cy="0" r="0.9" class="primitive"/>
            </g>
            <g transform="translate(72.55,67.06)" id="img-9d5b87d1-110" fill="#FF6DAE">
              <circle cx="0" cy="0" r="0.9" class="primitive"/>
            </g>
            <g transform="translate(87.16,66.91)" id="img-9d5b87d1-111" fill="#FF6DAE">
              <circle cx="0" cy="0" r="0.9" class="primitive"/>
            </g>
            <g transform="translate(106.46,66.86)" id="img-9d5b87d1-112" fill="#00B78D">
              <circle cx="0" cy="0" r="0.9" class="primitive"/>
            </g>
            <g transform="translate(56.29,66.77)" id="img-9d5b87d1-113" fill="#D4CA3A">
              <circle cx="0" cy="0" r="0.9" class="primitive"/>
            </g>
            <g transform="translate(31.69,66.75)" id="img-9d5b87d1-114" fill="#00BFFF">
              <circle cx="0" cy="0" r="0.9" class="primitive"/>
            </g>
            <g transform="translate(77.79,66.47)" id="img-9d5b87d1-115" fill="#FF6DAE">
              <circle cx="0" cy="0" r="0.9" class="primitive"/>
            </g>
            <g transform="translate(102.29,66.45)" id="img-9d5b87d1-116" fill="#00B78D">
              <circle cx="0" cy="0" r="0.9" class="primitive"/>
            </g>
            <g transform="translate(108.3,66.4)" id="img-9d5b87d1-117" fill="#00B78D">
              <circle cx="0" cy="0" r="0.9" class="primitive"/>
            </g>
            <g transform="translate(81.67,66.35)" id="img-9d5b87d1-118" fill="#FF6DAE">
              <circle cx="0" cy="0" r="0.9" class="primitive"/>
            </g>
            <g transform="translate(54.44,66.33)" id="img-9d5b87d1-119" fill="#D4CA3A">
              <circle cx="0" cy="0" r="0.9" class="primitive"/>
            </g>
            <g transform="translate(33.72,66.18)" id="img-9d5b87d1-120" fill="#00BFFF">
              <circle cx="0" cy="0" r="0.9" class="primitive"/>
            </g>
            <g transform="translate(29.93,66.05)" id="img-9d5b87d1-121" fill="#00BFFF">
              <circle cx="0" cy="0" r="0.9" class="primitive"/>
            </g>
            <g transform="translate(128.17,66.03)" id="img-9d5b87d1-122" fill="#BEA9FF">
              <circle cx="0" cy="0" r="0.9" class="primitive"/>
            </g>
            <g transform="translate(97.52,65.98)" id="img-9d5b87d1-123" fill="#00B78D">
              <circle cx="0" cy="0" r="0.9" class="primitive"/>
            </g>
            <g transform="translate(35.61,65.95)" id="img-9d5b87d1-124" fill="#00BFFF">
              <circle cx="0" cy="0" r="0.9" class="primitive"/>
            </g>
            <g transform="translate(83.52,65.92)" id="img-9d5b87d1-125" fill="#FF6DAE">
              <circle cx="0" cy="0" r="0.9" class="primitive"/>
            </g>
            <g transform="translate(75.97,65.92)" id="img-9d5b87d1-126" fill="#FF6DAE">
              <circle cx="0" cy="0" r="0.9" class="primitive"/>
            </g>
            <g transform="translate(52.59,65.88)" id="img-9d5b87d1-127" fill="#D4CA3A">
              <circle cx="0" cy="0" r="0.9" class="primitive"/>
            </g>
            <g transform="translate(100.55,65.7)" id="img-9d5b87d1-128" fill="#00B78D">
              <circle cx="0" cy="0" r="0.9" class="primitive"/>
            </g>
            <g transform="translate(28.06,65.7)" id="img-9d5b87d1-129" fill="#00BFFF">
              <circle cx="0" cy="0" r="0.9" class="primitive"/>
            </g>
            <g transform="translate(94.85,65.65)" id="img-9d5b87d1-130" fill="#00B78D">
              <circle cx="0" cy="0" r="0.9" class="primitive"/>
            </g>
            <g transform="translate(110.03,65.61)" id="img-9d5b87d1-131" fill="#00B78D">
              <circle cx="0" cy="0" r="0.9" class="primitive"/>
            </g>
            <g transform="translate(104.92,65.48)" id="img-9d5b87d1-132" fill="#00B78D">
              <circle cx="0" cy="0" r="0.9" class="primitive"/>
            </g>
            <g transform="translate(85.92,65.46)" id="img-9d5b87d1-133" fill="#FF6DAE">
              <circle cx="0" cy="0" r="0.9" class="primitive"/>
            </g>
            <g transform="translate(74.15,65.38)" id="img-9d5b87d1-134" fill="#FF6DAE">
              <circle cx="0" cy="0" r="0.9" class="primitive"/>
            </g>
            <g transform="translate(79.93,65.12)" id="img-9d5b87d1-135" fill="#FF6DAE">
              <circle cx="0" cy="0" r="0.9" class="primitive"/>
            </g>
            <g transform="translate(50.86,65.09)" id="img-9d5b87d1-136" fill="#D4CA3A">
              <circle cx="0" cy="0" r="0.9" class="primitive"/>
            </g>
            <g transform="translate(57.07,65.04)" id="img-9d5b87d1-137" fill="#D4CA3A">
              <circle cx="0" cy="0" r="0.9" class="primitive"/>
            </g>
            <g transform="translate(32.16,64.91)" id="img-9d5b87d1-138" fill="#00BFFF">
              <circle cx="0" cy="0" r="0.9" class="primitive"/>
            </g>
            <g transform="translate(72.32,64.87)" id="img-9d5b87d1-139" fill="#FF6DAE">
              <circle cx="0" cy="0" r="0.9" class="primitive"/>
            </g>
            <g transform="translate(106.69,64.79)" id="img-9d5b87d1-140" fill="#00B78D">
              <circle cx="0" cy="0" r="0.9" class="primitive"/>
            </g>
            <g transform="translate(58.95,64.76)" id="img-9d5b87d1-141" fill="#D4CA3A">
              <circle cx="0" cy="0" r="0.9" class="primitive"/>
            </g>
            <g transform="translate(79.93,64.69)" id="img-9d5b87d1-142" fill="#FF6DAE">
              <circle cx="0" cy="0" r="0.9" class="primitive"/>
            </g>
            <g transform="translate(79.93,64.54)" id="img-9d5b87d1-143" fill="#FF6DAE">
              <circle cx="0" cy="0" r="0.9" class="primitive"/>
            </g>
            <g transform="translate(34.18,64.33)" id="img-9d5b87d1-144" fill="#00BFFF">
              <circle cx="0" cy="0" r="0.9" class="primitive"/>
            </g>
            <g transform="translate(30.25,64.18)" id="img-9d5b87d1-145" fill="#00BFFF">
              <circle cx="0" cy="0" r="0.9" class="primitive"/>
            </g>
            <g transform="translate(81.73,63.94)" id="img-9d5b87d1-146" fill="#FF6DAE">
              <circle cx="0" cy="0" r="0.9" class="primitive"/>
            </g>
            <g transform="translate(103.87,63.9)" id="img-9d5b87d1-147" fill="#00B78D">
              <circle cx="0" cy="0" r="0.9" class="primitive"/>
            </g>
            <g transform="translate(108.31,63.79)" id="img-9d5b87d1-148" fill="#00B78D">
              <circle cx="0" cy="0" r="0.9" class="primitive"/>
            </g>
            <g transform="translate(128.17,63.79)" id="img-9d5b87d1-149" fill="#BEA9FF">
              <circle cx="0" cy="0" r="0.9" class="primitive"/>
            </g>
            <g transform="translate(104.05,63.69)" id="img-9d5b87d1-150" fill="#00B78D">
              <circle cx="0" cy="0" r="0.9" class="primitive"/>
            </g>
            <g transform="translate(78.35,63.49)" id="img-9d5b87d1-151" fill="#FF6DAE">
              <circle cx="0" cy="0" r="0.9" class="primitive"/>
            </g>
            <g transform="translate(102.03,63.41)" id="img-9d5b87d1-152" fill="#00B78D">
              <circle cx="0" cy="0" r="0.9" class="primitive"/>
            </g>
            <g transform="translate(110.14,63.28)" id="img-9d5b87d1-153" fill="#00B78D">
              <circle cx="0" cy="0" r="0.9" class="primitive"/>
            </g>
            <g transform="translate(55.81,63.25)" id="img-9d5b87d1-154" fill="#D4CA3A">
              <circle cx="0" cy="0" r="0.9" class="primitive"/>
            </g>
            <g transform="translate(76.47,63.23)" id="img-9d5b87d1-155" fill="#FF6DAE">
              <circle cx="0" cy="0" r="0.9" class="primitive"/>
            </g>
            <g transform="translate(100.16,63.08)" id="img-9d5b87d1-156" fill="#00B78D">
              <circle cx="0" cy="0" r="0.9" class="primitive"/>
            </g>
            <g transform="translate(83.43,63.08)" id="img-9d5b87d1-157" fill="#FF6DAE">
              <circle cx="0" cy="0" r="0.9" class="primitive"/>
            </g>
            <g transform="translate(74.58,63.05)" id="img-9d5b87d1-158" fill="#FF6DAE">
              <circle cx="0" cy="0" r="0.9" class="primitive"/>
            </g>
            <g transform="translate(105.81,62.98)" id="img-9d5b87d1-159" fill="#00B78D">
              <circle cx="0" cy="0" r="0.9" class="primitive"/>
            </g>
            <g transform="translate(98.28,62.84)" id="img-9d5b87d1-160" fill="#00B78D">
              <circle cx="0" cy="0" r="0.9" class="primitive"/>
            </g>
            <g transform="translate(96.38,62.72)" id="img-9d5b87d1-161" fill="#00B78D">
              <circle cx="0" cy="0" r="0.9" class="primitive"/>
            </g>
            <g transform="translate(55.81,62.69)" id="img-9d5b87d1-162" fill="#D4CA3A">
              <circle cx="0" cy="0" r="0.9" class="primitive"/>
            </g>
            <g transform="translate(31.69,62.62)" id="img-9d5b87d1-163" fill="#00BFFF">
              <circle cx="0" cy="0" r="0.9" class="primitive"/>
            </g>
            <g transform="translate(33.65,62.51)" id="img-9d5b87d1-164" fill="#00BFFF">
              <circle cx="0" cy="0" r="0.9" class="primitive"/>
            </g>
            <g transform="translate(55.81,62.4)" id="img-9d5b87d1-165" fill="#D4CA3A">
              <circle cx="0" cy="0" r="0.9" class="primitive"/>
            </g>
            <g transform="translate(57.71,62.36)" id="img-9d5b87d1-166" fill="#D4CA3A">
              <circle cx="0" cy="0" r="0.9" class="primitive"/>
            </g>
            <g transform="translate(53.92,62.26)" id="img-9d5b87d1-167" fill="#D4CA3A">
              <circle cx="0" cy="0" r="0.9" class="primitive"/>
            </g>
            <g transform="translate(111.73,62.24)" id="img-9d5b87d1-168" fill="#00B78D">
              <circle cx="0" cy="0" r="0.9" class="primitive"/>
            </g>
            <g transform="translate(29.85,62.15)" id="img-9d5b87d1-169" fill="#00BFFF">
              <circle cx="0" cy="0" r="0.9" class="primitive"/>
            </g>
            <g transform="translate(27.95,62.09)" id="img-9d5b87d1-170" fill="#00BFFF">
              <circle cx="0" cy="0" r="0.9" class="primitive"/>
            </g>
            <g transform="translate(31.69,61.63)" id="img-9d5b87d1-171" fill="#00BFFF">
              <circle cx="0" cy="0" r="0.9" class="primitive"/>
            </g>
            <g transform="translate(26.13,61.55)" id="img-9d5b87d1-172" fill="#00BFFF">
              <circle cx="0" cy="0" r="0.9" class="primitive"/>
            </g>
            <g transform="translate(33.22,60.5)" id="img-9d5b87d1-173" fill="#00BFFF">
              <circle cx="0" cy="0" r="0.9" class="primitive"/>
            </g>
            <g transform="translate(30.64,60.05)" id="img-9d5b87d1-174" fill="#00BFFF">
              <circle cx="0" cy="0" r="0.9" class="primitive"/>
            </g>
            <g transform="translate(28.76,59.77)" id="img-9d5b87d1-175" fill="#00BFFF">
              <circle cx="0" cy="0" r="0.9" class="primitive"/>
            </g>
            <g transform="translate(34.88,59.57)" id="img-9d5b87d1-176" fill="#00BFFF">
              <circle cx="0" cy="0" r="0.9" class="primitive"/>
            </g>
            <g transform="translate(79.93,59.47)" id="img-9d5b87d1-177" fill="#FF6DAE">
              <circle cx="0" cy="0" r="0.9" class="primitive"/>
            </g>
            <g transform="translate(81.8,59.14)" id="img-9d5b87d1-178" fill="#FF6DAE">
              <circle cx="0" cy="0" r="0.9" class="primitive"/>
            </g>
            <g transform="translate(104.05,59.12)" id="img-9d5b87d1-179" fill="#00B78D">
              <circle cx="0" cy="0" r="0.9" class="primitive"/>
            </g>
            <g transform="translate(55.81,58.97)" id="img-9d5b87d1-180" fill="#D4CA3A">
              <circle cx="0" cy="0" r="0.9" class="primitive"/>
            </g>
            <g transform="translate(57.71,58.85)" id="img-9d5b87d1-181" fill="#D4CA3A">
              <circle cx="0" cy="0" r="0.9" class="primitive"/>
            </g>
            <g transform="translate(31.97,58.69)" id="img-9d5b87d1-182" fill="#00BFFF">
              <circle cx="0" cy="0" r="0.9" class="primitive"/>
            </g>
            <g transform="translate(79.93,58.31)" id="img-9d5b87d1-183" fill="#FF6DAE">
              <circle cx="0" cy="0" r="0.9" class="primitive"/>
            </g>
            <g transform="translate(29.99,58.26)" id="img-9d5b87d1-184" fill="#00BFFF">
              <circle cx="0" cy="0" r="0.9" class="primitive"/>
            </g>
            <g transform="translate(54.13,58.08)" id="img-9d5b87d1-185" fill="#D4CA3A">
              <circle cx="0" cy="0" r="0.9" class="primitive"/>
            </g>
            <g transform="translate(105.46,57.85)" id="img-9d5b87d1-186" fill="#00B78D">
              <circle cx="0" cy="0" r="0.9" class="primitive"/>
            </g>
            <g transform="translate(33.58,57.69)" id="img-9d5b87d1-187" fill="#00BFFF">
              <circle cx="0" cy="0" r="0.9" class="primitive"/>
            </g>
            <g transform="translate(35.44,57.31)" id="img-9d5b87d1-188" fill="#00BFFF">
              <circle cx="0" cy="0" r="0.9" class="primitive"/>
            </g>
            <g transform="translate(81.02,56.75)" id="img-9d5b87d1-189" fill="#FF6DAE">
              <circle cx="0" cy="0" r="0.9" class="primitive"/>
            </g>
            <g transform="translate(31.69,55.64)" id="img-9d5b87d1-190" fill="#00BFFF">
              <circle cx="0" cy="0" r="0.9" class="primitive"/>
            </g>
            <g transform="translate(128.17,54.58)" id="img-9d5b87d1-191" fill="#BEA9FF">
              <circle cx="0" cy="0" r="0.9" class="primitive"/>
            </g>
            <g transform="translate(79.93,54.32)" id="img-9d5b87d1-192" fill="#FF6DAE">
              <circle cx="0" cy="0" r="0.9" class="primitive"/>
            </g>
            <g transform="translate(33.03,54.29)" id="img-9d5b87d1-193" fill="#00BFFF">
              <circle cx="0" cy="0" r="0.9" class="primitive"/>
            </g>
            <g transform="translate(30.45,54.2)" id="img-9d5b87d1-194" fill="#00BFFF">
              <circle cx="0" cy="0" r="0.9" class="primitive"/>
            </g>
            <g transform="translate(34.79,53.58)" id="img-9d5b87d1-195" fill="#00BFFF">
              <circle cx="0" cy="0" r="0.9" class="primitive"/>
            </g>
            <g transform="translate(55.81,52.72)" id="img-9d5b87d1-196" fill="#D4CA3A">
              <circle cx="0" cy="0" r="0.9" class="primitive"/>
            </g>
            <g transform="translate(80.87,52.66)" id="img-9d5b87d1-197" fill="#FF6DAE">
              <circle cx="0" cy="0" r="0.9" class="primitive"/>
            </g>
            <g transform="translate(31.69,52.54)" id="img-9d5b87d1-198" fill="#00BFFF">
              <circle cx="0" cy="0" r="0.9" class="primitive"/>
            </g>
            <g transform="translate(79,52.35)" id="img-9d5b87d1-199" fill="#FF6DAE">
              <circle cx="0" cy="0" r="0.9" class="primitive"/>
            </g>
            <g transform="translate(33.39,51.68)" id="img-9d5b87d1-200" fill="#00BFFF">
              <circle cx="0" cy="0" r="0.9" class="primitive"/>
            </g>
            <g transform="translate(30.8,50.86)" id="img-9d5b87d1-201" fill="#00BFFF">
              <circle cx="0" cy="0" r="0.9" class="primitive"/>
            </g>
            <g transform="translate(80.08,50.79)" id="img-9d5b87d1-202" fill="#FF6DAE">
              <circle cx="0" cy="0" r="0.9" class="primitive"/>
            </g>
            <g transform="translate(55.81,50.48)" id="img-9d5b87d1-203" fill="#D4CA3A">
              <circle cx="0" cy="0" r="0.9" class="primitive"/>
            </g>
            <g transform="translate(78.27,50.21)" id="img-9d5b87d1-204" fill="#FF6DAE">
              <circle cx="0" cy="0" r="0.9" class="primitive"/>
            </g>
            <g transform="translate(81.46,49.49)" id="img-9d5b87d1-205" fill="#FF6DAE">
              <circle cx="0" cy="0" r="0.9" class="primitive"/>
            </g>
            <g transform="translate(31.69,48.25)" id="img-9d5b87d1-206" fill="#00BFFF">
              <circle cx="0" cy="0" r="0.9" class="primitive"/>
            </g>
            <g transform="translate(55.81,47.73)" id="img-9d5b87d1-207" fill="#D4CA3A">
              <circle cx="0" cy="0" r="0.9" class="primitive"/>
            </g>
            <g transform="translate(104.05,47.46)" id="img-9d5b87d1-208" fill="#00B78D">
              <circle cx="0" cy="0" r="0.9" class="primitive"/>
            </g>
            <g transform="translate(79.93,47.37)" id="img-9d5b87d1-209" fill="#FF6DAE">
              <circle cx="0" cy="0" r="0.9" class="primitive"/>
            </g>
            <g transform="translate(79.93,46.66)" id="img-9d5b87d1-210" fill="#FF6DAE">
              <circle cx="0" cy="0" r="0.9" class="primitive"/>
            </g>
            <g transform="translate(31.69,44.7)" id="img-9d5b87d1-211" fill="#00BFFF">
              <circle cx="0" cy="0" r="0.9" class="primitive"/>
            </g>
            <g transform="translate(31.69,44.56)" id="img-9d5b87d1-212" fill="#00BFFF">
              <circle cx="0" cy="0" r="0.9" class="primitive"/>
            </g>
            <g transform="translate(104.05,44.03)" id="img-9d5b87d1-213" fill="#00B78D">
              <circle cx="0" cy="0" r="0.9" class="primitive"/>
            </g>
            <g transform="translate(33.46,43.88)" id="img-9d5b87d1-214" fill="#00BFFF">
              <circle cx="0" cy="0" r="0.9" class="primitive"/>
            </g>
            <g transform="translate(55.81,43.59)" id="img-9d5b87d1-215" fill="#D4CA3A">
              <circle cx="0" cy="0" r="0.9" class="primitive"/>
            </g>
            <g transform="translate(105.17,42.49)" id="img-9d5b87d1-216" fill="#00B78D">
              <circle cx="0" cy="0" r="0.9" class="primitive"/>
            </g>
            <g transform="translate(55.81,40.47)" id="img-9d5b87d1-217" fill="#D4CA3A">
              <circle cx="0" cy="0" r="0.9" class="primitive"/>
            </g>
            <g transform="translate(79.93,39.98)" id="img-9d5b87d1-218" fill="#FF6DAE">
              <circle cx="0" cy="0" r="0.9" class="primitive"/>
            </g>
            <g transform="translate(31.69,39.22)" id="img-9d5b87d1-219" fill="#00BFFF">
              <circle cx="0" cy="0" r="0.9" class="primitive"/>
            </g>
            <g transform="translate(80.98,38.39)" id="img-9d5b87d1-220" fill="#FF6DAE">
              <circle cx="0" cy="0" r="0.9" class="primitive"/>
            </g>
            <g transform="translate(31.69,36.17)" id="img-9d5b87d1-221" fill="#00BFFF">
              <circle cx="0" cy="0" r="0.9" class="primitive"/>
            </g>
            <g transform="translate(33.57,35.86)" id="img-9d5b87d1-222" fill="#00BFFF">
              <circle cx="0" cy="0" r="0.9" class="primitive"/>
            </g>
            <g transform="translate(104.05,34.74)" id="img-9d5b87d1-223" fill="#00B78D">
              <circle cx="0" cy="0" r="0.9" class="primitive"/>
            </g>
            <g transform="translate(104.05,32.17)" id="img-9d5b87d1-224" fill="#00B78D">
              <circle cx="0" cy="0" r="0.9" class="primitive"/>
            </g>
            <g transform="translate(105.39,30.83)" id="img-9d5b87d1-225" fill="#00B78D">
              <circle cx="0" cy="0" r="0.9" class="primitive"/>
            </g>
            <g transform="translate(79.93,29.98)" id="img-9d5b87d1-226" fill="#FF6DAE">
              <circle cx="0" cy="0" r="0.9" class="primitive"/>
            </g>
            <g transform="translate(79.93,22.2)" id="img-9d5b87d1-227" fill="#FF6DAE">
              <circle cx="0" cy="0" r="0.9" class="primitive"/>
            </g>
            <g transform="translate(81.81,21.91)" id="img-9d5b87d1-228" fill="#FF6DAE">
              <circle cx="0" cy="0" r="0.9" class="primitive"/>
            </g>
            <g transform="translate(104.05,21.86)" id="img-9d5b87d1-229" fill="#00B78D">
              <circle cx="0" cy="0" r="0.9" class="primitive"/>
            </g>
            <g transform="translate(31.69,20.02)" id="img-9d5b87d1-230" fill="#00BFFF">
              <circle cx="0" cy="0" r="0.9" class="primitive"/>
            </g>
            <g transform="translate(79.93,14.6)" id="img-9d5b87d1-231" fill="#FF6DAE">
              <circle cx="0" cy="0" r="0.9" class="primitive"/>
            </g>
          </g>
        </g>
      </g>
    </g>
  </g>
  <g class="guide ylabels" font-size="2.82" font-family="'PT Sans Caption','Helvetica Neue','Helvetica',sans-serif" fill="#6C606B" id="img-9d5b87d1-232">
    <g transform="translate(18.63,68.72)" id="img-9d5b87d1-233">
      <g class="primitive">
        <text text-anchor="end" dy="0.35em">0</text>
      </g>
    </g>
    <g transform="translate(18.63,40.66)" id="img-9d5b87d1-234">
      <g class="primitive">
        <text text-anchor="end" dy="0.35em">50</text>
      </g>
    </g>
    <g transform="translate(18.63,12.61)" id="img-9d5b87d1-235">
      <g class="primitive">
        <text text-anchor="end" dy="0.35em">100</text>
      </g>
    </g>
  </g>
  <g font-size="3.88" font-family="'PT Sans','Helvetica Neue','Helvetica',sans-serif" fill="#564A55" stroke="#000000" stroke-opacity="0.000" id="img-9d5b87d1-236">
    <g transform="translate(8.81,38.66)" id="img-9d5b87d1-237">
      <g class="primitive">
        <text text-anchor="middle" dy="0.35em" transform="rotate(-90,0, 2)">Population (mils)</text>
      </g>
    </g>
  </g>
  <g font-size="3.88" font-family="'PT Sans','Helvetica Neue','Helvetica',sans-serif" fill="#564A55" stroke="#000000" stroke-opacity="0.000" id="img-9d5b87d1-238">
    <g transform="translate(79.93,5)" id="img-9d5b87d1-239">
      <g class="primitive">
        <text text-anchor="middle" dy="0.6em">2019 Population Beeswarm by Region (sub 100 mil)</text>
      </g>
    </g>
  </g>
</g>
<defs>
  <clipPath id="img-9d5b87d1-20">
    <path d="M19.63,10.61 L140.23,10.61 140.23,70.72 19.63,70.72 " />
  </clipPath>
</defs>
</svg>
